<svg width="68" height="59" viewBox="0 0 68 59" fill="none" xmlns="http://www.w3.org/2000/svg">
<g>
<path d="M25.3744 7.88092L1.58008 14.2863L13.4136 58.7395L37.2079 52.4622L15.0678 46.4412L25.3744 7.88092Z" fill="#DEDEDE"/>
<path d="M30.0413 0.108398L18.1864 44.6544L55.0574 54.6006L66.9123 10.0546L30.0413 0.108398Z" fill="#DEDEDE"/>
<path d="M32.4149 6.11436L24.8409 34.5743L54.3377 42.5313L61.9116 14.0714L32.4149 6.11436Z" fill="#575757"/>
<path d="M43.6974 18.6421C43.5702 19.4107 43.0612 19.9231 42.425 20.3074C41.7888 20.6918 41.0253 20.8199 40.2619 20.5637C39.4984 20.4356 38.9895 19.9231 38.6077 19.2826C38.226 18.6421 38.0988 17.8734 38.3532 17.1048C38.4805 16.3361 38.9895 15.8237 39.6257 15.4394C40.2619 15.0551 41.0253 14.9269 41.7888 15.1832C42.5522 15.3113 43.0612 15.8237 43.4429 16.4642C43.8247 17.1048 43.8247 17.8734 43.6974 18.6421ZM47.0057 24.1507C46.8785 24.0226 46.7512 24.0226 46.7512 24.0226C46.624 24.0226 46.4967 24.0226 46.3695 24.1507L41.0253 28.122L38.9895 24.4069C38.8622 24.2788 38.735 24.2788 38.6077 24.2788C38.4805 24.2788 38.3532 24.2788 38.226 24.4069L33.1363 27.9939L32.5001 30.1717C32.3729 30.4279 32.5001 30.8122 32.6273 31.0685C32.7546 31.3247 33.0091 31.4528 33.2636 31.5809L48.2781 35.6803C48.4054 35.6803 48.5326 35.6803 48.6599 35.6803C48.7871 35.6803 48.9143 35.5522 49.0416 35.5522C49.1688 35.4241 49.2961 35.4241 49.4233 35.296C49.5506 35.1679 49.5506 35.0398 49.6778 34.9117L50.9502 30.0436L47.0057 24.1507Z" fill="#DEDEDE"/>
</g>
</svg>
